<svg xmlns="http://www.w3.org/2000/svg" viewBox="0 0 192 192">
  <rect width="192" height="192" rx="38" fill="#0a0a0a"/>
  <ellipse cx="96" cy="130" rx="52" ry="40" fill="#e8d5a3" opacity="0.9"/>
  <path d="M60 120 Q96 110 132 120" stroke="#c4a96e" stroke-width="1.5" fill="none" opacity="0.6"/>
  <path d="M56 130 Q96 118 136 130" stroke="#c4a96e" stroke-width="1.5" fill="none" opacity="0.6"/>
  <path d="M58 140 Q96 128 134 140" stroke="#c4a96e" stroke-width="1.5" fill="none" opacity="0.6"/>
  <ellipse cx="96" cy="100" rx="15" ry="7" fill="#c4634a"/>
  <ellipse cx="96" cy="74" rx="27" ry="29" fill="#8B6355"/>
  <rect x="67" y="43" width="58" height="16" rx="8" fill="#1a1a2e"/>
  <ellipse cx="96" cy="47" rx="30" ry="10" fill="#1a1a2e"/>
  <ellipse cx="86" cy="72" rx="4" ry="4.5" fill="#1a0f0a"/>
  <ellipse cx="106" cy="72" rx="4" ry="4.5" fill="#1a0f0a"/>
  <circle cx="87.5" cy="70.5" r="1.2" fill="white"/>
  <circle cx="107.5" cy="70.5" r="1.2" fill="white"/>
  <ellipse cx="96" cy="81" rx="5" ry="3" fill="#7a5244"/>
  <path d="M90 88 Q96 92 102 88" stroke="#5a3a2a" stroke-width="1.8" fill="none" stroke-linecap="round"/>
  <text x="150" y="36" font-size="20" fill="#c4a96e" font-family="sans-serif">✦</text>
</svg>
